<?xml version="1.0" encoding="utf-8"?>
<!-- Generator: Adobe Illustrator 20.0.0, SVG Export Plug-In . SVG Version: 6.00 Build 0)  -->
<svg version="1.1" id="Layer_1" xmlns="http://www.w3.org/2000/svg" xmlns:xlink="http://www.w3.org/1999/xlink" x="0px" y="0px"
	 viewBox="0 0 6967 3401.6" style="enable-background:new 0 0 6967 3401.6;" xml:space="preserve">
<style type="text/css">
	.st0{fill-rule:evenodd;clip-rule:evenodd;fill:#E63027;}
</style>
<g>
	<path class="st0" d="M457.4,2762.3H0c0,0,86-43,86-125.1c0-35.2,0-1298,0-1360.6c0-93.8-86-117.3-86-117.3h957.9v269.8
		c0,0-23.5-89.9-97.7-89.9c-62.6,0-488.7,0-488.7,0V1781h496.5v246.3c0,0-15.6-58.6-86-58.6c-58.6,0-410.5,0-410.5,0
		s0,629.4,0,664.6C371.4,2723.2,457.4,2762.3,457.4,2762.3L457.4,2762.3z"/>
	<path class="st0" d="M6325.8,2792.9c-336.8-1.2-570.8-206.6-570.8-417.6c0-340.1,0-1020.4,0-1098.6c0-78.2-93.8-117.3-93.8-117.3
		h461.3c0,0-93.8,39.1-93.8,113.4c0,74.3,0,1075.1,0,1102.5c0,105.3,147.2,240.5,289.3,239.5c139.4-1,281.5-133,281.5-239.5
		c0-39.1,0-1049.7,0-1100.5c0-82.1-93.8-113.4-93.8-113.4H6967c0,0-93.8,31.3-93.8,113.4c0,82.1,0,799.5,0,1100.5
		C6873.1,2580.6,6639.7,2794,6325.8,2792.9L6325.8,2792.9z"/>
	<path class="st0" d="M1681.1,2792.9c-336.8-1.2-570.8-206.6-570.8-417.6c0-340.1,0-1020.4,0-1098.6c0-78.2-93.8-117.3-93.8-117.3
		h461.3c0,0-93.8,39.1-93.8,113.4c0,74.3,0,1075.1,0,1102.5c0,105.3,147.3,240.5,289.3,239.5c139.4-1,281.5-133,281.5-239.5
		c0-39.1,0-1051.7,0-1102.5c0-82.1-93.8-113.4-93.8-113.4h461.3c0,0-93.8,31.3-93.8,113.4c0,82.1,0,801.5,0,1102.5
		C2228.5,2580.6,1995.1,2794,1681.1,2792.9L1681.1,2792.9z"/>
	<path class="st0" d="M2900.9,1159.4c0,0-93.8,39.1-93.8,121.2c0,86,0,1689,0,1689s-4.8,293.2-500.4,422.2
		c-10.2,2.7,222.8-246.3,222.8-422.2c0-117.3,2.8-1626.5,0-1689c-3.9-86-93.8-121.2-93.8-121.2H2900.9L2900.9,1159.4z"/>
	<path class="st0" d="M3370.1,2637.2c3.9,86,93.8,121.2,93.8,121.2h-465.2c0,0,93.8-39.1,93.8-121.2h0.5
		c0.7-484.6,1.6-1311.4-0.5-1356.6c-3.9-86-93.8-121.2-93.8-121.2h465.2c0,0-93.8,39.1-93.8,121.2c0,59.8,0,874.8,0,1352.7V2637.2
		L3370.1,2637.2z"/>
	<path class="st0" d="M4214.6,1339.2c0,206.1,0,877.9,0,1294.1v3.9c3.9,86,93.8,121.2,93.8,121.2h-465.2c0,0,93.8-39.1,93.8-121.2
		h0.5c0.6-416.3,1.3-1089.1,0.2-1298c0,0-200.1,0-309.5,0c-97.7,0-152.5,109.5-152.5,109.5l93.8-289.3h1090.8l-66.5,265.9
		c0,0-3.9-86-97.7-86C4421.8,1339.2,4214.6,1339.2,4214.6,1339.2L4214.6,1339.2z"/>
	<path class="st0" d="M2858.7,680.2c56.2,122.3,216,215.4,386.3,215.4c247.3,0,447.8-200.5,447.8-447.9
		C3692.8,200.5,3492.3,0,3245,0c-134.8,0-255.7,59.5-337.8,153.8l3.1,237.2c14.2-162.7,190.9-254.7,334.7-250.8
		c170,4.6,308,137.9,308,308c0,170.1-137.9,308-308,308c-109.3,0-203.4-58.9-258.1-144.8l-14.2-27.4
		c-61.4-113.8-186-201.6-329.8-201.6c-204.6,0-370.4,165.9-370.4,370.4c0,204.6,165.8,370.4,370.4,370.4
		c117.2,0,221.8-54.5,289.7-139.5V817.3l-133.7,111.2c-40,27.6-98.4,51-155.9,51c-125.2,0-226.7-101.5-226.7-226.7
		c0-125.2,101.5-226.7,226.7-226.7c92.6,0,168.5,57.6,213.1,149.2L2858.7,680.2L2858.7,680.2z"/>
	<path class="st0" d="M5495,1409.6c0,0,0-150.5,0-197.4c0-27.4-178.8-68.3-292.3-69.4c-82.1-0.8-558.1,18.5-558.1,435
		c0,342.1,359.7,477,406.6,500.4c46.9,23.5,310.8,140.8,310.8,281.5c0,183.8-156.4,275.6-344.1,275.6
		c-187.7,0-340.3-121.6-383.1-158.4c-3.3-2.9,64.5,281.5,64.5,281.5s169.6,43,312.8,43c66.5,0,629.5,0,629.5-445.7
		c0-338.2-346-459.4-414.4-492.6c-62.9-30.5-306.9-125.1-306.9-301c0-140.7,168.1-258,293.2-258
		C5389.7,1304,5452,1360.7,5495,1409.6L5495,1409.6z"/>
</g>
</svg>
