<?xml version="1.0" encoding="UTF-8" standalone="no"?>
<svg
   xmlns:dc="http://purl.org/dc/elements/1.1/"
   xmlns:cc="http://creativecommons.org/ns#"
   xmlns:rdf="http://www.w3.org/1999/02/22-rdf-syntax-ns#"
   xmlns:svg="http://www.w3.org/2000/svg"
   xmlns="http://www.w3.org/2000/svg"
   viewBox="0 0 236.66667 93.333336"
   height="93.333336"
   width="236.66667"
   xml:space="preserve"
   id="svg2"
   version="1.1"><metadata
     id="metadata8"><rdf:RDF><cc:Work
         rdf:about=""><dc:format>image/svg+xml</dc:format><dc:type
           rdf:resource="http://purl.org/dc/dcmitype/StillImage" /></cc:Work></rdf:RDF></metadata><defs
     id="defs6"><clipPath
       id="clipPath18"
       clipPathUnits="userSpaceOnUse"><path
         id="path16"
         d="M 9.999,10 110,60 95,10 Z" /></clipPath><radialGradient
       id="radialGradient28"
       spreadMethod="pad"
       gradientTransform="matrix(65.128723,0,0,-65.128723,110.04004,60.041504)"
       gradientUnits="userSpaceOnUse"
       r="1"
       cy="0"
       cx="0"
       fy="0"
       fx="0"><stop
         id="stop24"
         offset="0"
         style="stop-opacity:1;stop-color:#3ac0c4" /><stop
         id="stop26"
         offset="1"
         style="stop-opacity:1;stop-color:#05aecc" /></radialGradient><clipPath
       id="clipPath40"
       clipPathUnits="userSpaceOnUse"><path
         id="path38"
         d="M 0,70 H 177.5 V 0 H 0 Z" /></clipPath></defs><g
     transform="matrix(1.3333333,0,0,-1.3333333,0,93.333333)"
     id="g10"><g
       id="g12"><g
         clip-path="url(#clipPath18)"
         id="g14"><g
           id="g20"><g
             id="g22"><path
               id="path30"
               style="fill:url(#radialGradient28);stroke:none"
               d="M 9.999,10 110,60 95,10 Z" /></g></g></g></g><path
       id="path32"
       style="fill:#ffffff;fill-opacity:1;fill-rule:nonzero;stroke:none"
       d="m 49.556,22.281 h 1.087 v -7.28 h -1.087 z m 0,1.623 v 1.087 h 1.087 v -1.1 h -1.061 z" /><g
       id="g34"><g
         clip-path="url(#clipPath40)"
         id="g36"><g
           transform="translate(53.5986,21.4429)"
           id="g42"><path
             id="path44"
             style="fill:#ffffff;fill-opacity:1;fill-rule:nonzero;stroke:none"
             d="m 0,0 c 0.628,0.602 1.479,0.982 2.305,0.982 1.976,0 2.591,-1.453 2.591,-3.443 V -6.442 H 3.811 v 3.994 c 0,1.466 -0.551,2.461 -1.534,2.461 -0.89,0 -1.728,-0.406 -2.265,-1.021 v -5.434 h -1.086 v 7.28 h 0.943 z" /></g><g
           transform="translate(66.9727,15.001)"
           id="g46"><path
             id="path48"
             style="fill:#ffffff;fill-opacity:1;fill-rule:nonzero;stroke:none"
             d="M 0,0 H -0.995 L -2.646,5.63 -4.282,0 h -0.994 l -2.305,7.28 h 1.126 L -4.728,1.532 -3.155,7.28 H -2.12 L -0.55,1.532 1.179,7.28 h 1.125 z" /></g><g
           transform="translate(74.667,16.729)"
           id="g50"><path
             id="path52"
             style="fill:#ffffff;fill-opacity:1;fill-rule:nonzero;stroke:none"
             d="m 0,0 c -0.027,0.458 -0.039,0.995 -0.039,1.506 -0.406,0.013 -1.14,0.013 -1.912,-0.013 -1.31,-0.039 -1.69,-0.773 -1.69,-1.323 0,-0.825 0.629,-1.087 1.637,-1.087 0.629,0 1.4,0.394 2.004,0.917 M 1.584,-1.113 0.902,-1.846 c -0.392,0.209 -0.64,0.616 -0.785,0.995 -0.536,-0.51 -1.375,-0.969 -2.173,-0.969 -1.546,0 -2.645,0.602 -2.645,1.886 0,1.152 0.864,2.2 2.711,2.238 0.549,0.014 1.426,0 1.963,-0.026 0,0.459 0.013,0.812 0.013,0.865 -0.025,1.021 -0.629,1.545 -1.297,1.545 -0.955,0 -2.002,-0.354 -2.788,-0.865 v 1.074 c 0.786,0.446 1.742,0.786 2.802,0.786 1.322,0 2.305,-0.891 2.305,-2.593 V 0.183 c 0,-0.615 0.235,-1.047 0.576,-1.296" /></g><g
           transform="translate(76.6436,22.2813)"
           id="g54"><path
             id="path56"
             style="fill:#ffffff;fill-opacity:1;fill-rule:nonzero;stroke:none"
             d="M 0,0 H 1.152 L 3.313,-5.827 5.514,0 H 6.548 L 3.771,-7.28 H 2.75 Z" /></g><g
           transform="translate(84.9443,19.3867)"
           id="g58"><path
             id="path60"
             style="fill:#ffffff;fill-opacity:1;fill-rule:nonzero;stroke:none"
             d="M 0,0 H 4.021 C 3.955,1.009 3.064,2.069 1.991,2.069 0.891,2.069 0.197,1.14 0,0 m -0.064,-0.824 c 0.025,-1.99 0.877,-2.672 2.291,-2.672 1.046,0 1.873,0.236 2.54,0.616 V -3.967 C 4.111,-4.255 3.196,-4.478 2.201,-4.478 c -1.977,0 -3.34,1.165 -3.34,3.758 0,2.357 1.414,3.745 3.13,3.745 1.716,0 3.064,-1.296 3.064,-3.352 v -0.497 z" /></g><path
           id="path62"
           style="fill:#05aecc;fill-opacity:1;fill-rule:nonzero;stroke:none"
           d="m 104.999,22.281 h 1.088 v -7.28 h -1.088 z m 0,1.623 v 1.087 h 1.088 v -1.1 h -1.061 z" /><g
           transform="translate(109.042,21.4429)"
           id="g64"><path
             id="path66"
             style="fill:#05aecc;fill-opacity:1;fill-rule:nonzero;stroke:none"
             d="m 0,0 c 0.629,0.602 1.479,0.982 2.305,0.982 1.976,0 2.591,-1.453 2.591,-3.443 V -6.442 H 3.811 v 3.994 c 0,1.466 -0.551,2.461 -1.534,2.461 -0.889,0 -1.727,-0.406 -2.264,-1.021 v -5.434 h -1.087 v 7.28 h 0.943 z" /></g><g
           transform="translate(119.4209,15.0796)"
           id="g68"><path
             id="path70"
             style="fill:#05aecc;fill-opacity:1;fill-rule:nonzero;stroke:none"
             d="m 0,0 c -0.248,-0.053 -0.746,-0.17 -1.414,-0.17 -1.4,0 -2.12,0.811 -2.12,2.317 V 6.246 H -4.32 v 0.956 h 0.786 v 1.885 h 1.087 V 7.202 h 2.029 V 6.246 H -2.447 V 2.239 c 0,-1.009 0.458,-1.441 1.126,-1.441 0.562,0 1.008,0.092 1.321,0.21 z" /></g><g
           transform="translate(121.3721,19.3867)"
           id="g72"><path
             id="path74"
             style="fill:#05aecc;fill-opacity:1;fill-rule:nonzero;stroke:none"
             d="M 0,0 H 4.021 C 3.955,1.009 3.064,2.069 1.991,2.069 0.891,2.069 0.197,1.14 0,0 m -0.064,-0.824 c 0.025,-1.99 0.877,-2.672 2.291,-2.672 1.046,0 1.873,0.236 2.541,0.616 V -3.967 C 4.111,-4.255 3.196,-4.478 2.201,-4.478 c -1.976,0 -3.34,1.165 -3.34,3.758 0,2.357 1.414,3.745 3.13,3.745 1.716,0 3.064,-1.296 3.064,-3.352 v -0.497 z" /></g><g
           transform="translate(127.9307,22.2813)"
           id="g76"><path
             id="path78"
             style="fill:#05aecc;fill-opacity:1;fill-rule:nonzero;stroke:none"
             d="m 0,0 h 0.89 l 0.196,-1.729 c 0.301,0.615 1.073,1.86 1.885,1.86 0.432,0 0.759,-0.053 1.06,-0.145 v -1.007 c 0,0 -0.445,0.117 -0.89,0.117 -0.706,0 -1.493,-1.257 -2.055,-2.383 V -7.28 L 0,-7.28 Z" /></g><g
           transform="translate(137.3975,16.729)"
           id="g80"><path
             id="path82"
             style="fill:#05aecc;fill-opacity:1;fill-rule:nonzero;stroke:none"
             d="M 0,0 C -0.026,0.458 -0.039,0.995 -0.039,1.506 -0.445,1.519 -1.178,1.519 -1.951,1.493 -3.26,1.454 -3.641,0.72 -3.641,0.17 c 0,-0.825 0.629,-1.087 1.637,-1.087 0.629,0 1.401,0.394 2.004,0.917 M 1.584,-1.113 0.903,-1.846 c -0.392,0.209 -0.641,0.616 -0.785,0.995 -0.537,-0.51 -1.375,-0.969 -2.173,-0.969 -1.546,0 -2.646,0.602 -2.646,1.886 0,1.152 0.865,2.2 2.711,2.238 0.549,0.014 1.427,0 1.964,-0.026 0,0.459 0.012,0.812 0.012,0.865 -0.025,1.021 -0.629,1.545 -1.297,1.545 -0.955,0 -2.002,-0.354 -2.787,-0.865 v 1.074 c 0.785,0.446 1.741,0.786 2.802,0.786 1.321,0 2.304,-0.891 2.304,-2.593 V 0.183 c 0,-0.615 0.236,-1.047 0.576,-1.296" /></g><g
           transform="translate(145.6768,15.8389)"
           id="g84"><path
             id="path86"
             style="fill:#05aecc;fill-opacity:1;fill-rule:nonzero;stroke:none"
             d="m 0,0 c -0.577,-0.642 -1.571,-0.93 -2.515,-0.93 -2.186,0 -3.272,1.388 -3.272,3.758 0,2.278 1.492,3.745 3.272,3.745 0.944,0 1.861,-0.393 2.462,-1.074 l -0.785,-0.72 c -0.328,0.406 -0.903,0.812 -1.65,0.812 -1.375,0 -2.213,-1.153 -2.213,-2.75 0,-1.663 0.825,-2.815 2.186,-2.815 0.759,0 1.441,0.328 1.755,0.733 z" /></g><g
           transform="translate(151.1172,15.0796)"
           id="g88"><path
             id="path90"
             style="fill:#05aecc;fill-opacity:1;fill-rule:nonzero;stroke:none"
             d="m 0,0 c -0.249,-0.053 -0.747,-0.17 -1.415,-0.17 -1.4,0 -2.119,0.811 -2.119,2.317 v 4.099 h -0.787 v 0.956 h 0.787 v 1.885 h 1.086 V 7.202 h 2.029 V 6.246 H -2.448 V 2.239 c 0,-1.009 0.459,-1.441 1.127,-1.441 0.562,0 1.008,0.092 1.321,0.21 z" /></g><path
           id="path92"
           style="fill:#05aecc;fill-opacity:1;fill-rule:nonzero;stroke:none"
           d="m 152.435,22.281 h 1.086 v -7.28 h -1.086 z m 0,1.623 v 1.087 h 1.086 v -1.1 h -1.06 z" /><g
           transform="translate(154.7783,22.2813)"
           id="g94"><path
             id="path96"
             style="fill:#05aecc;fill-opacity:1;fill-rule:nonzero;stroke:none"
             d="M 0,0 H 1.153 L 3.313,-5.827 5.514,0 H 6.549 L 3.771,-7.28 H 2.75 Z" /></g><g
           transform="translate(163.0801,19.3867)"
           id="g98"><path
             id="path100"
             style="fill:#05aecc;fill-opacity:1;fill-rule:nonzero;stroke:none"
             d="M 0,0 H 4.02 C 3.955,1.009 3.063,2.069 1.991,2.069 0.892,2.069 0.196,1.14 0,0 m -0.065,-0.824 c 0.025,-1.99 0.878,-2.672 2.291,-2.672 1.047,0 1.873,0.236 2.541,0.616 V -3.967 C 4.111,-4.255 3.194,-4.478 2.2,-4.478 c -1.976,0 -3.34,1.165 -3.34,3.758 0,2.357 1.415,3.745 3.131,3.745 1.715,0 3.064,-1.296 3.064,-3.352 v -0.497 z" /></g></g></g></g></svg>