<?xml version="1.0" encoding="utf-8"?>
<!-- Generator: Adobe Illustrator 20.0.0, SVG Export Plug-In . SVG Version: 6.00 Build 0)  -->
<svg version="1.1" id="Layer_1" xmlns="http://www.w3.org/2000/svg" xmlns:xlink="http://www.w3.org/1999/xlink" x="0px" y="0px"
	 viewBox="0 0 460 101" style="enable-background:new 0 0 460 101;" xml:space="preserve">
<style type="text/css">
	.st0{fill-rule:evenodd;clip-rule:evenodd;fill:#6F6F6E;}
	.st1{fill-rule:evenodd;clip-rule:evenodd;fill:#009EE2;}
</style>
<g>
	<g>
		<path class="st0" d="M382.5,26.6c0-9.4,0.9-19.2,10.1-19.2h2.7c8,0,10.1,7.9,10.1,16v3.7c0,8.6-2.2,16.5-10.7,16.5h-2.1
			C384.4,43.7,382.5,35,382.5,26.6L382.5,26.6z M370.2,26.6c0,15.7,7.7,24,23.5,24h0.5c14.4,0,23.5-7.8,23.5-21.9V25
			c0-15.6-7.3-24-22.9-24h-0.5c-16.6,0-24,7.9-24,24.5V26.6z"/>
		<path class="st0" d="M334.6,8.4h8c5.1,0,8.5,4.1,8.5,9.1v2.1c0,6.3-2.7,12.3-8.5,12.3h-8V8.4L334.6,8.4z M342,38.3
			c11.6,0,20.8-5.5,20.8-16.5V17c0-10.5-8.7-14.9-19.7-14.9h-20.3v48h11.7V38.3H342z"/>
		<path class="st0" d="M193.4,8.4h8c6.5,0,8.5,5.2,8.5,11.7c0,6.3-2.8,11.7-9.1,11.7h-7.5V8.4L193.4,8.4z M201.9,38.3
			c10.9,0,19.7-6,19.7-16.5V17C221.7,8.4,214,2,205.1,2h-23.5v48h11.7V38.3H201.9z"/>
		<path class="st0" d="M135,21.3c0-7.1,3.1-13.9,10.1-13.9h2.7c9.2,0,10.1,9.8,10.1,19.2v2.7c0,8.4-3.2,14.4-11.7,14.4h-1.1
			c-8.6,0-10.1-8.9-10.1-17.6V21.3L135,21.3z M122.7,25c0,17.2,6.8,25.6,24,25.6c15.4,0,23.5-8.2,23.5-23.5V25
			c0-14.9-7.2-24-21.9-24h-4.8C129.7,1,122.7,10.8,122.7,25z"/>
		<polygon class="st0" points="263,2.1 222.9,2 222.9,8.4 236.8,8.4 236.8,50.1 248.5,50.1 248.5,8.4 262.3,8.4 		"/>
		<polygon class="st0" points="460,43.7 440.7,43.7 440.7,2.1 429,2.1 429,50.1 459.3,50.1 		"/>
		<path class="st0" d="M277.7,23.4c0-8.1,2.2-16,10.1-16h2.7c9.2,0,10.1,9.8,10.1,19.2v3.7c0,6.6-3.7,13.3-10.7,13.3h-2.1
			c-8.5,0-10.1-8.9-10.1-17.6V23.4L277.7,23.4z M265.5,26.6c0,13.9,7.3,24,20.8,24h3.2c15.4,0,23.5-8.2,23.5-23.5V25
			c0-14.9-7.1-24-21.9-24h-4.8c-14,0-20.8,10.1-20.8,24.5V26.6z"/>
	</g>
	<g>
		<path class="st1" d="M3.7,25.9c7.4-3.9,18.5-6.3,30.4-7.1c13.9-1,28.9,0.1,40,3.2c6.9,1.9,12.4,4.6,15.3,8
			c4.3,6.1,4.5,20.4,3.1,27.5c-2.9,1.8-8.6,3.3-15.8,4.4c-12,1.8-28.3,2.4-43.7,1.8c-12.3-0.5-23.9-1.8-32.2-4
			C-0.6,51.4-0.6,37.2,3.7,25.9L3.7,25.9z M34.1,18.8c-1.3,12.5-1.7,29.6-1.1,44.8c0.5,11.8,1.6,22.5,3.5,29.1
			c9.1,0.5,21.2,0.4,31.4-3.9c4.7-7.4,7.5-16.9,8.8-26.9c1.7-13.9,0.5-28.8-2.6-39.9c-2.4-8.6-5.9-15-10-16.9
			c-4.9-2.3-15.8-4.4-26.3-3.3C36.3,4,35,10.4,34.1,18.8z"/>
		<g>
			<path class="st0" d="M239.7,68.8v24h3.4v-25C242.2,67.9,239.7,67.9,239.7,68.8z"/>
			<path class="st0" d="M127,70.3v4.1h-2.9v2.2h2.9v12.6c0,2.6,1.8,3.9,4.4,3.9h0.2c2.9,0,3.6,0.1,3.6-2.9h-2.9
				c-1.2,0-1.9-0.8-1.9-1.9V76.6h4.1v-2.2h-4.1v-5.1h-1C128.5,69.3,127,69.4,127,70.3z"/>
			<path class="st0" d="M197.7,75.6v17h3.4V77.3c0.5-0.1,0.6-0.2,1.2-0.2h4.4c2.3,0,3.9,1.6,3.9,3.9v11.7h3.4V80
				c0-3.6-3.4-5.6-7.3-5.6h-3.9C201.6,74.4,197.7,74.6,197.7,75.6z"/>
			<path class="st0" d="M176.8,68.1l0,24.7h3.4l0-15.5l2.2-0.3h2.9c3,0,4.4,2.1,4.4,5.1v10.7h3.4V82.4c0-5.7-2.3-8-8-8l-0.2-0.1
				l-4.6,0.3l0-6.9L176.8,68.1z"/>
			<path class="st0" d="M250.2,83.4v-0.7c0-3,2.3-5.8,5.3-5.8h0.7c3.4,0,5.8,2.6,5.8,5.8v2.4c0,3-2.8,5.3-6.1,5.3h-0.5
				C251.7,90.5,250.2,87.3,250.2,83.4L250.2,83.4z M246.8,82.7v0.7c0,5.2,3.4,9.7,8.3,9.7h1.5c4.7,0,9-3.8,9-8.3v-1.5
				c0-5.8-3.6-9.2-9.5-9.2C250.7,74.2,246.8,77.6,246.8,82.7z"/>
			<path class="st0" d="M220.8,84.9v-0.7c0-3.9,1.5-7.3,5.3-7.3h0.7c4,0,5.8,2.8,5.8,6.8v1.5c0,2.8-2.7,5.3-5.6,5.3h-1
				C223.2,90.5,220.8,87.8,220.8,84.9L220.8,84.9z M217.4,82.7v0.7c0,5.2,3.4,9.7,8.3,9.7h1.5c5.5,0,9-3.9,9-9.5
				c0-5.7-3.3-9.5-9-9.5C221.5,74.2,217.4,77.3,217.4,82.7z"/>
			<path class="st0" d="M158.1,83.4c0,6,3.1,9.7,9,9.7h1.2c1.2,0,4.9,0.2,4.9-1v-1.9h-6.1c-3,0-5.3-2.9-5.3-6.1v-1.2
				c0-2.9,1.7-5.1,4.1-5.6c1.4-0.3,2.9-0.2,4.6-0.2c2.3,0,2.4,0.1,2.4-2.4c-0.5-0.1-0.6-0.2-1.2-0.2h-4.9
				C161.5,74.4,158.1,78,158.1,83.4z"/>
			<path class="st0" d="M141.1,81c0-2.2,2.2-3.9,4.6-3.9h1.7c2,0,4.1,2.4,4.1,4.6v1h-10.4V81L141.1,81z M137.5,82.2v1
				c0,5.8,2.4,10,8,10h3.4c3.7,0,3.9,0.2,4.1-2.9h-5.3c-3.1,0-6.6-0.9-6.6-3.9v-1h14.1v-1c0-5-2.4-10-7-10h-2.9
				C140.9,74.4,137.5,78,137.5,82.2z"/>
			<path class="st0" d="M271.8,83.6c0-3.3,1.2-6.6,4.4-6.6h5.1v13.1h-3.6c-3.6,0-5.8-2.6-5.8-6.1V83.6L271.8,83.6z M268.1,83.2
				c0,6,3,10,9,10h1l2.7-0.3c-0.1,2.7-3,5-3.4,6.4h2.9c1,0,2.9-3.3,3.3-4.5c0.7-2.1,1.1-4,1.1-6.7V75.6c0-1-4.2-1.2-5.3-1.2h-2.7
				C271.4,74.4,268.1,77.9,268.1,83.2z"/>
			<path class="st0" d="M291.4,74.7l-3.6,0c0.3,2,2.3,7.1,3,9.4c0.5,1.4,2.5,8.8,3.6,8.8h1.7c-0.2,2.9-3.5,4.9-3.9,6.3h3.2
				c2.2,0,5.4-8.6,6.1-11.1c0.8-2.5,3.7-11.2,3.8-13.4h-3.4l-4.4,15.5l-1.2,0L291.4,74.7z"/>
		</g>
	</g>
</g>
</svg>
