<?xml version="1.0" encoding="utf-8"?>
<!-- Generator: Adobe Illustrator 21.0.0, SVG Export Plug-In . SVG Version: 6.00 Build 0)  -->
<svg version="1.1" id="Layer_1" xmlns="http://www.w3.org/2000/svg" xmlns:xlink="http://www.w3.org/1999/xlink" x="0px" y="0px"
	 viewBox="0 0 189.4 161" style="enable-background:new 0 0 189.4 161;" xml:space="preserve">
<style type="text/css">
	.Arched_x0020_Green{fill:url(#SVGID_1_);stroke:#FFFFFF;stroke-width:0.25;stroke-miterlimit:1;}
	.st0{fill:url(#SVGID_2_);}
	.st1{fill:#808184;}
	.st2{fill:#58595B;}
	.st3{fill:#BBBDBF;}
	.st4{fill:#FFFFFF;}
</style>
<linearGradient id="SVGID_1_" gradientUnits="userSpaceOnUse" x1="-351" y1="172.5" x2="-350.2929" y2="171.7929">
	<stop  offset="0" style="stop-color:#1EAB4B"/>
	<stop  offset="0.9831" style="stop-color:#19361A"/>
</linearGradient>
<g id="New_Symbol">
	<g>
		
			<linearGradient id="SVGID_2_" gradientUnits="userSpaceOnUse" x1="-357.4019" y1="-274.6168" x2="-356.5895" y2="-274.6168" gradientTransform="matrix(101.0413 -84.9862 -84.9862 -101.0413 12822.1094 -58046.7578)">
			<stop  offset="0" style="stop-color:#070908"/>
			<stop  offset="0" style="stop-color:#070907"/>
			<stop  offset="0.264" style="stop-color:#000000"/>
			<stop  offset="0.5225" style="stop-color:#090B0A"/>
			<stop  offset="0.8764" style="stop-color:#000000"/>
			<stop  offset="1" style="stop-color:#050706"/>
			<stop  offset="1" style="stop-color:#000000"/>
		</linearGradient>
		<path class="st0" d="M93.3,0C72.4,0,55.4,16.8,55.4,37.3c0,20.5,17,37.3,37.9,37.3c20.8,0,37.9-16.8,37.9-37.3
			C131.2,16.8,114.1,0,93.3,0"/>
		<g>
			<path class="st1" d="M97.7,34.1c0,0.4,0.2,0.7,0.6,0.7c0.4,0,0.7-0.2,0.7-0.6c0-0.4-0.3-0.7-0.6-0.7
				C98.1,33.4,97.7,33.7,97.7,34.1z"/>
			<path class="st2" d="M100.6,34.3c0,0.3,0.2,0.5,0.4,0.5c0.3,0,0.5-0.2,0.5-0.5c0-0.2-0.2-0.5-0.4-0.5
				C100.9,33.9,100.6,34.1,100.6,34.3z"/>
			<path class="st3" d="M94.3,33.9c0,0.5,0.4,1,0.9,1c0.5,0,1-0.4,1-0.9c0-0.5-0.4-1-0.9-1C94.8,32.9,94.3,33.4,94.3,33.9z"/>
			<path class="st4" d="M90,33.6c0,0.7,0.5,1.4,1.3,1.5c0.7,0.1,1.4-0.5,1.5-1.3c0-0.8-0.5-1.4-1.3-1.5C90.7,32.2,90.1,32.8,90,33.6
				z"/>
			<path class="st3" d="M86.6,33.3c0,0.5,0.4,1,0.9,1c0.5,0,1-0.4,1-0.9c0-0.5-0.4-1-0.9-1C87.1,32.4,86.6,32.8,86.6,33.3z"/>
			<path class="st1" d="M83.7,33.1c0,0.4,0.3,0.7,0.6,0.7c0.4,0,0.7-0.3,0.7-0.6c0-0.4-0.2-0.7-0.6-0.7
				C84.1,32.5,83.8,32.7,83.7,33.1z"/>
			<path class="st2" d="M81.3,33c0,0.3,0.2,0.5,0.4,0.5c0.3,0,0.5-0.2,0.5-0.4c0-0.3-0.2-0.5-0.4-0.5C81.5,32.5,81.3,32.7,81.3,33z"
				/>
			<path class="st1" d="M95,30.4c0,0.3,0.2,0.6,0.5,0.6c0.3,0,0.6-0.2,0.6-0.5c0-0.3-0.2-0.6-0.5-0.6C95.3,29.8,95,30.1,95,30.4z"/>
			<path class="st2" d="M97.4,30.6c0,0.2,0.1,0.4,0.4,0.4c0.2,0,0.4-0.2,0.4-0.4c0-0.2-0.1-0.4-0.4-0.4
				C97.6,30.2,97.5,30.3,97.4,30.6z"/>
			<path class="st3" d="M92.1,30.2c0,0.4,0.3,0.8,0.7,0.9c0.5,0,0.8-0.3,0.9-0.7c0-0.5-0.3-0.8-0.8-0.9
				C92.5,29.4,92.1,29.7,92.1,30.2z"/>
			<path class="st4" d="M88.5,29.9c0,0.6,0.4,1.2,1.1,1.2c0.6,0.1,1.2-0.4,1.2-1.1c0.1-0.6-0.4-1.2-1.1-1.2
				C89.1,28.8,88.6,29.3,88.5,29.9z"/>
			<path class="st3" d="M85.6,29.7c0,0.5,0.3,0.8,0.7,0.9c0.4,0,0.8-0.3,0.9-0.8c0-0.4-0.3-0.8-0.7-0.9C86,28.9,85.6,29.3,85.6,29.7
				z"/>
			<path class="st1" d="M83.2,29.6c0,0.3,0.2,0.6,0.5,0.6c0.3,0,0.6-0.2,0.6-0.5c0-0.3-0.2-0.6-0.5-0.6C83.5,29,83.2,29.2,83.2,29.6
				z"/>
			<path class="st2" d="M81.1,29.4c0,0.2,0.1,0.4,0.4,0.4c0.2,0,0.4-0.1,0.4-0.4c0-0.2-0.1-0.4-0.4-0.4C81.3,29,81.1,29.2,81.1,29.4
				z"/>
			<path class="st1" d="M93.2,26.7c0,0.3,0.2,0.5,0.5,0.5c0.3,0,0.5-0.2,0.5-0.5c0-0.3-0.2-0.5-0.4-0.5
				C93.5,26.3,93.2,26.5,93.2,26.7z"/>
			<path class="st2" d="M95.3,26.9c0,0.2,0.1,0.4,0.3,0.4c0.2,0,0.4-0.1,0.4-0.3c0-0.2-0.1-0.3-0.3-0.4
				C95.5,26.6,95.3,26.7,95.3,26.9z"/>
			<path class="st3" d="M90.7,26.6c0,0.4,0.3,0.7,0.6,0.7c0.4,0,0.7-0.3,0.7-0.6c0-0.4-0.3-0.7-0.6-0.7
				C91.1,25.9,90.8,26.2,90.7,26.6z"/>
			<path class="st4" d="M87.6,26.3c0,0.5,0.4,1,0.9,1.1c0.6,0,1-0.4,1.1-0.9c0.1-0.5-0.4-1-0.9-1.1C88.2,25.4,87.7,25.8,87.6,26.3z"
				/>
			<path class="st3" d="M85.2,26.2c0,0.4,0.3,0.7,0.7,0.7c0.4,0,0.7-0.3,0.7-0.7c0-0.4-0.3-0.7-0.6-0.7
				C85.5,25.5,85.2,25.8,85.2,26.2z"/>
			<path class="st1" d="M83.1,26c0,0.3,0.2,0.5,0.5,0.5c0.3,0,0.5-0.2,0.5-0.5c0-0.3-0.2-0.5-0.4-0.5C83.3,25.5,83.1,25.8,83.1,26z"
				/>
			<path class="st2" d="M81.3,25.9c0,0.2,0.1,0.3,0.3,0.4c0.2,0,0.3-0.1,0.4-0.3c0-0.2-0.1-0.4-0.3-0.4
				C81.5,25.6,81.3,25.7,81.3,25.9z"/>
			<path class="st1" d="M91.9,23.1c0,0.2,0.2,0.4,0.4,0.4c0.2,0,0.4-0.2,0.4-0.4c0-0.2-0.1-0.4-0.4-0.4
				C92.1,22.7,91.9,22.9,91.9,23.1z"/>
			<path class="st2" d="M93.6,23.2c0,0.1,0.1,0.3,0.2,0.3c0.2,0,0.3-0.1,0.3-0.2c0-0.2-0.1-0.3-0.3-0.3C93.7,23,93.6,23.1,93.6,23.2
				z"/>
			<path class="st3" d="M89.8,23c0,0.3,0.2,0.6,0.5,0.6c0.3,0,0.6-0.2,0.6-0.5c0-0.3-0.2-0.6-0.5-0.6C90.1,22.4,89.8,22.6,89.8,23z"
				/>
			<path class="st4" d="M87.2,22.8c0,0.5,0.3,0.9,0.8,0.9c0.5,0,0.8-0.3,0.9-0.8c0-0.4-0.3-0.8-0.8-0.9C87.7,22,87.3,22.3,87.2,22.8
				z"/>
			<path class="st3" d="M85.2,22.6c0,0.3,0.2,0.6,0.5,0.6c0.3,0,0.6-0.2,0.6-0.5c0-0.3-0.2-0.6-0.5-0.6
				C85.5,22.1,85.2,22.3,85.2,22.6z"/>
			<path class="st1" d="M83.4,22.5c0,0.2,0.2,0.4,0.4,0.4c0.2,0,0.4-0.2,0.4-0.3c0-0.2-0.1-0.4-0.4-0.4
				C83.7,22.1,83.5,22.3,83.4,22.5z"/>
			<path class="st2" d="M82,22.4c0,0.2,0.1,0.3,0.3,0.3c0.2,0,0.3-0.1,0.3-0.3c0-0.2-0.1-0.3-0.3-0.3C82.1,22.1,82,22.3,82,22.4z"/>
			<path class="st1" d="M91.5,19.5c0,0.2,0.1,0.4,0.3,0.4c0.2,0,0.3-0.1,0.3-0.3c0-0.2-0.1-0.3-0.3-0.3
				C91.7,19.2,91.5,19.4,91.5,19.5z"/>
			<path class="st2" d="M92.9,19.7c0,0.1,0.1,0.2,0.2,0.2c0.1,0,0.2-0.1,0.2-0.2c0-0.1-0.1-0.2-0.2-0.2C93,19.4,92.9,19.5,92.9,19.7
				z"/>
			<path class="st3" d="M89.8,19.4c0,0.3,0.2,0.5,0.4,0.5c0.3,0,0.5-0.2,0.5-0.4c0-0.3-0.2-0.5-0.4-0.5C90.1,19,89.8,19.2,89.8,19.4
				z"/>
			<path class="st4" d="M87.8,19.3c0,0.4,0.2,0.7,0.6,0.7c0.4,0,0.7-0.3,0.7-0.6c0-0.4-0.3-0.7-0.6-0.7
				C88.1,18.7,87.8,18.9,87.8,19.3z"/>
			<path class="st3" d="M86.1,19.2c0,0.3,0.2,0.5,0.4,0.5c0.3,0,0.5-0.2,0.5-0.4c0-0.3-0.2-0.5-0.4-0.5
				C86.3,18.7,86.1,18.9,86.1,19.2z"/>
			<path class="st1" d="M84.7,19.1c0,0.2,0.1,0.3,0.3,0.3c0.2,0,0.3-0.1,0.3-0.3c0-0.2-0.1-0.3-0.3-0.3
				C84.9,18.8,84.7,18.9,84.7,19.1z"/>
			<path class="st2" d="M83.5,19c0,0.1,0.1,0.2,0.2,0.3c0.1,0,0.2-0.1,0.2-0.2c0-0.1-0.1-0.2-0.2-0.2C83.6,18.8,83.5,18.9,83.5,19z"
				/>
			<path class="st1" d="M92,16.1c0,0.1,0.1,0.3,0.3,0.3c0.2,0,0.3-0.1,0.3-0.3c0-0.2-0.1-0.3-0.3-0.3C92.1,15.8,92,15.9,92,16.1z"/>
			<path class="st3" d="M90.5,15.9c0,0.2,0.2,0.4,0.4,0.5c0.2,0,0.4-0.2,0.4-0.4c0-0.2-0.1-0.4-0.4-0.4
				C90.7,15.6,90.5,15.7,90.5,15.9z"/>
			<path class="st4" d="M88.7,15.8c0,0.3,0.2,0.6,0.5,0.6c0.3,0,0.6-0.2,0.6-0.6c0-0.3-0.2-0.6-0.5-0.6C89,15.3,88.7,15.5,88.7,15.8
				z"/>
			<path class="st3" d="M87.2,15.7c0,0.2,0.2,0.4,0.4,0.5c0.2,0,0.4-0.2,0.4-0.4c0-0.2-0.1-0.4-0.4-0.4
				C87.4,15.3,87.2,15.5,87.2,15.7z"/>
			<path class="st1" d="M86,15.6c0,0.1,0.1,0.3,0.3,0.3c0.2,0,0.3-0.1,0.3-0.3c0-0.2-0.1-0.3-0.3-0.3C86.1,15.3,86,15.5,86,15.6z"/>
			<path class="st3" d="M92,12.5c0,0.2,0.1,0.4,0.4,0.4c0.2,0,0.4-0.1,0.4-0.4c0-0.2-0.1-0.4-0.4-0.5C92.2,12.1,92,12.3,92,12.5z"/>
			<path class="st4" d="M90.1,12.4c0,0.3,0.2,0.6,0.5,0.6c0.3,0,0.6-0.2,0.6-0.5c0-0.3-0.2-0.6-0.5-0.6
				C90.4,11.8,90.1,12.1,90.1,12.4z"/>
			<path class="st3" d="M88.7,12.3c0,0.2,0.2,0.4,0.4,0.4c0.2,0,0.4-0.1,0.4-0.4c0-0.2-0.1-0.4-0.4-0.4
				C88.8,11.9,88.7,12.1,88.7,12.3z"/>
			<path class="st4" d="M92,10c0,0.2,0.2,0.4,0.4,0.4c0.2,0,0.4-0.2,0.4-0.4c0-0.2-0.1-0.4-0.4-0.5C92.2,9.5,92,9.7,92,10z"/>
			<path class="st1" d="M85.6,37.4c0,0.4-0.4,0.8-0.9,0.7c-0.4,0-0.8-0.4-0.8-0.9c0-0.4,0.4-0.8,0.9-0.7
				C85.3,36.5,85.6,37,85.6,37.4z"/>
			<path class="st2" d="M82.2,37.1c0,0.3-0.3,0.6-0.6,0.5c-0.3,0-0.5-0.3-0.5-0.6c0-0.3,0.3-0.5,0.6-0.5
				C81.9,36.6,82.2,36.8,82.2,37.1z"/>
			<path class="st3" d="M89.7,37.7c0,0.6-0.6,1.1-1.2,1.1c-0.6,0-1.1-0.6-1.1-1.2c0-0.6,0.6-1.1,1.2-1.1
				C89.3,36.5,89.8,37,89.7,37.7z"/>
			<path class="st4" d="M94.9,38c-0.1,0.9-0.9,1.6-1.8,1.5c-0.9-0.1-1.6-0.9-1.5-1.8c0-0.9,0.8-1.6,1.7-1.5
				C94.2,36.3,94.9,37.1,94.9,38z"/>
			<path class="st3" d="M99,38.3c0,0.6-0.6,1.1-1.2,1.1c-0.6,0-1.1-0.6-1.1-1.2c0-0.6,0.6-1.1,1.2-1.1C98.5,37.1,99,37.7,99,38.3z"
				/>
			<path class="st1" d="M102.4,38.6c0,0.4-0.4,0.8-0.9,0.7c-0.4,0-0.8-0.4-0.7-0.9c0-0.4,0.4-0.8,0.9-0.8
				C102.1,37.7,102.4,38.1,102.4,38.6z"/>
			<path class="st2" d="M105.4,38.8c0,0.3-0.3,0.5-0.6,0.5c-0.3,0-0.6-0.3-0.5-0.6c0-0.3,0.3-0.5,0.6-0.5
				C105.2,38.2,105.4,38.5,105.4,38.8z"/>
			<path class="st1" d="M88.9,41.5c0-0.4-0.3-0.7-0.6-0.7c-0.4,0-0.7,0.2-0.7,0.6c0,0.4,0.2,0.7,0.6,0.7
				C88.6,42.2,88.9,41.9,88.9,41.5z"/>
			<path class="st2" d="M86,41.3c0-0.3-0.2-0.5-0.4-0.5c-0.2,0-0.5,0.2-0.5,0.4c0,0.3,0.2,0.5,0.4,0.5C85.8,41.8,86,41.6,86,41.3z"
				/>
			<path class="st3" d="M92.4,41.8c0-0.5-0.4-1-0.9-1c-0.5,0-1,0.4-1,0.9c0,0.5,0.4,1,0.9,1C91.9,42.7,92.3,42.3,92.4,41.8z"/>
			<path class="st4" d="M96.6,42.1c0.1-0.8-0.5-1.4-1.3-1.5c-0.7-0.1-1.4,0.5-1.5,1.3c-0.1,0.8,0.5,1.4,1.3,1.5
				C95.9,43.4,96.6,42.8,96.6,42.1z"/>
			<path class="st3" d="M100.1,42.3c0-0.5-0.4-1-0.9-1c-0.5,0-1,0.4-1,0.9c0,0.5,0.4,1,0.9,1C99.6,43.2,100,42.8,100.1,42.3z"/>
			<path class="st1" d="M102.9,42.5c0-0.4-0.2-0.7-0.6-0.7c-0.4,0-0.7,0.3-0.7,0.6c0,0.4,0.3,0.7,0.6,0.7
				C102.6,43.1,102.9,42.9,102.9,42.5z"/>
			<path class="st2" d="M105.4,42.7c0-0.3-0.2-0.5-0.4-0.5c-0.3,0-0.5,0.2-0.5,0.4c0,0.3,0.2,0.5,0.4,0.5
				C105.2,43.1,105.4,42.9,105.4,42.7z"/>
			<path class="st1" d="M91.6,45.2c0-0.3-0.2-0.6-0.5-0.6c-0.3,0-0.6,0.2-0.6,0.5c0,0.3,0.2,0.6,0.5,0.6
				C91.3,45.8,91.6,45.5,91.6,45.2z"/>
			<path class="st2" d="M89.2,45.1c0-0.2-0.1-0.4-0.4-0.4c-0.2,0-0.4,0.2-0.4,0.4c0,0.2,0.1,0.4,0.4,0.4
				C89,45.4,89.2,45.3,89.2,45.1z"/>
			<path class="st3" d="M94.5,45.4c0.1-0.4-0.3-0.8-0.7-0.9c-0.5,0-0.8,0.3-0.9,0.7c0,0.4,0.3,0.8,0.8,0.9
				C94.1,46.2,94.5,45.9,94.5,45.4z"/>
			<path class="st4" d="M98.2,45.7c0-0.7-0.4-1.2-1.1-1.3c-0.6,0-1.2,0.4-1.2,1.1c0,0.6,0.4,1.2,1.1,1.2
				C97.6,46.8,98.1,46.3,98.2,45.7z"/>
			<path class="st3" d="M101.1,45.9c0-0.4-0.3-0.8-0.8-0.9c-0.4,0-0.8,0.3-0.8,0.8c0,0.4,0.3,0.8,0.8,0.8
				C100.6,46.7,101,46.3,101.1,45.9z"/>
			<path class="st1" d="M103.5,46c0-0.3-0.2-0.6-0.5-0.6c-0.3,0-0.6,0.2-0.6,0.5c0,0.3,0.2,0.6,0.5,0.6
				C103.2,46.6,103.5,46.3,103.5,46z"/>
			<path class="st2" d="M105.6,46.2c0-0.2-0.1-0.4-0.4-0.4c-0.2,0-0.4,0.2-0.4,0.4c0,0.2,0.2,0.4,0.4,0.4
				C105.4,46.6,105.5,46.4,105.6,46.2z"/>
			<path class="st1" d="M93.4,48.9c0-0.3-0.2-0.5-0.4-0.5c-0.3,0-0.5,0.2-0.5,0.4c0,0.3,0.2,0.5,0.4,0.5
				C93.2,49.3,93.4,49.1,93.4,48.9z"/>
			<path class="st2" d="M91.4,48.7c0-0.2-0.1-0.4-0.3-0.4c-0.2,0-0.3,0.1-0.4,0.3c0,0.2,0.1,0.4,0.3,0.4
				C91.2,49.1,91.3,48.9,91.4,48.7z"/>
			<path class="st3" d="M96,49.1c0-0.4-0.3-0.7-0.7-0.7c-0.4,0-0.7,0.3-0.7,0.6c0,0.4,0.3,0.7,0.7,0.7C95.6,49.7,95.9,49.4,96,49.1z
				"/>
			<path class="st4" d="M99,49.3c0-0.5-0.4-1-0.9-1c-0.5,0-1,0.4-1.1,0.9c0,0.6,0.4,1,0.9,1.1C98.5,50.2,99,49.8,99,49.3z"/>
			<path class="st3" d="M101.5,49.5c0-0.4-0.3-0.7-0.7-0.7c-0.4,0-0.7,0.3-0.7,0.6c0,0.4,0.3,0.7,0.6,0.7
				C101.1,50.1,101.5,49.8,101.5,49.5z"/>
			<path class="st1" d="M103.6,49.6c0-0.3-0.2-0.5-0.4-0.5c-0.3,0-0.5,0.2-0.5,0.5c0,0.3,0.2,0.5,0.4,0.5
				C103.3,50.1,103.6,49.9,103.6,49.6z"/>
			<path class="st2" d="M105.4,49.7c0-0.2-0.1-0.3-0.3-0.4c-0.2,0-0.3,0.1-0.4,0.3c0,0.2,0.1,0.3,0.3,0.4
				C105.2,50.1,105.3,49.9,105.4,49.7z"/>
			<path class="st1" d="M94.8,52.5c0-0.2-0.1-0.4-0.4-0.4c-0.2,0-0.4,0.1-0.4,0.4c0,0.2,0.2,0.4,0.4,0.4
				C94.6,52.9,94.8,52.7,94.8,52.5z"/>
			<path class="st2" d="M93.1,52.4c0-0.2-0.1-0.3-0.3-0.3c-0.1,0-0.3,0.1-0.3,0.3c0,0.2,0.1,0.3,0.3,0.3
				C92.9,52.7,93.1,52.5,93.1,52.4z"/>
			<path class="st3" d="M96.9,52.7c0-0.3-0.2-0.6-0.5-0.6c-0.3,0-0.6,0.2-0.6,0.5c0,0.3,0.2,0.6,0.5,0.6
				C96.6,53.2,96.8,53,96.9,52.7z"/>
			<path class="st4" d="M99.4,52.8c0-0.4-0.3-0.8-0.8-0.9c-0.4,0-0.8,0.3-0.9,0.8c0,0.5,0.3,0.9,0.8,0.9
				C99,53.6,99.4,53.3,99.4,52.8z"/>
			<path class="st3" d="M101.5,53c0-0.3-0.2-0.6-0.5-0.6c-0.3,0-0.6,0.2-0.6,0.6c0,0.3,0.2,0.6,0.5,0.6
				C101.2,53.5,101.5,53.3,101.5,53z"/>
			<path class="st1" d="M103.2,53.1c0-0.2-0.2-0.4-0.4-0.4c-0.2,0-0.4,0.1-0.4,0.4c0,0.2,0.1,0.4,0.4,0.4
				C103,53.5,103.2,53.3,103.2,53.1z"/>
			<path class="st2" d="M104.7,53.2c0-0.1-0.1-0.3-0.3-0.3c-0.2,0-0.3,0.1-0.3,0.3c0,0.1,0.1,0.3,0.3,0.3
				C104.5,53.5,104.7,53.4,104.7,53.2z"/>
			<path class="st1" d="M95.1,56c0-0.2-0.1-0.3-0.3-0.3c-0.2,0-0.3,0.1-0.4,0.3c0,0.2,0.1,0.3,0.3,0.4C95,56.4,95.1,56.3,95.1,56z"
				/>
			<path class="st2" d="M93.8,56c0-0.1-0.1-0.3-0.2-0.3c-0.1,0-0.2,0.1-0.2,0.2c0,0.1,0.1,0.2,0.2,0.2C93.6,56.2,93.7,56.1,93.8,56z
				"/>
			<path class="st3" d="M96.8,56.2c0-0.2-0.2-0.5-0.4-0.5c-0.3,0-0.5,0.2-0.5,0.4c0,0.3,0.2,0.5,0.4,0.5
				C96.6,56.6,96.8,56.4,96.8,56.2z"/>
			<path class="st4" d="M98.9,56.3c0-0.4-0.3-0.7-0.6-0.7c-0.4,0-0.7,0.3-0.7,0.6c0,0.3,0.2,0.7,0.6,0.7
				C98.5,57,98.9,56.7,98.9,56.3z"/>
			<path class="st3" d="M100.6,56.4c0-0.2-0.2-0.5-0.4-0.5c-0.3,0-0.5,0.2-0.5,0.5c0,0.3,0.2,0.5,0.4,0.5
				C100.4,56.9,100.5,56.7,100.6,56.4z"/>
			<path class="st1" d="M102,56.5c0-0.2-0.1-0.4-0.3-0.4c-0.2,0-0.4,0.1-0.4,0.3c0,0.2,0.1,0.3,0.3,0.4
				C101.8,56.9,102,56.7,102,56.5z"/>
			<path class="st2" d="M103.2,56.6c0-0.1-0.1-0.2-0.2-0.2c-0.1,0-0.2,0.1-0.2,0.2c0,0.1,0.1,0.3,0.2,0.3
				C103.1,56.9,103.2,56.8,103.2,56.6z"/>
			<path class="st1" d="M94.7,59.6c0-0.2-0.1-0.3-0.3-0.3c-0.1,0-0.3,0.1-0.3,0.3c0,0.1,0.1,0.3,0.3,0.3
				C94.5,59.8,94.7,59.7,94.7,59.6z"/>
			<path class="st3" d="M96.2,59.7c0-0.2-0.2-0.4-0.3-0.4c-0.2,0-0.4,0.2-0.5,0.4c0,0.2,0.1,0.4,0.4,0.4
				C96,60.1,96.1,59.9,96.2,59.7z"/>
			<path class="st4" d="M98,59.8c0-0.3-0.2-0.6-0.5-0.6c-0.3,0-0.6,0.2-0.6,0.5c0,0.3,0.2,0.6,0.5,0.6C97.7,60.4,98,60.1,98,59.8z"
				/>
			<path class="st3" d="M99.5,59.9c0-0.2-0.2-0.4-0.4-0.4c-0.2,0-0.4,0.1-0.4,0.4c0,0.2,0.1,0.4,0.4,0.4
				C99.3,60.3,99.5,60.1,99.5,59.9z"/>
			<path class="st2" d="M100.7,60c0-0.1-0.1-0.3-0.3-0.3c-0.2,0-0.3,0.1-0.3,0.3c0,0.2,0.1,0.3,0.3,0.3
				C100.5,60.3,100.7,60.1,100.7,60z"/>
			<path class="st3" d="M94.7,63.1c0-0.2-0.2-0.4-0.3-0.4c-0.2,0-0.4,0.2-0.5,0.4c0,0.2,0.1,0.4,0.4,0.4
				C94.5,63.5,94.7,63.3,94.7,63.1z"/>
			<path class="st4" d="M96.5,63.2c0-0.3-0.2-0.6-0.5-0.6c-0.3,0-0.6,0.2-0.6,0.6c0,0.3,0.2,0.6,0.6,0.6
				C96.2,63.8,96.5,63.6,96.5,63.2z"/>
			<path class="st3" d="M98,63.3c0-0.2-0.1-0.4-0.4-0.4c-0.2,0-0.4,0.2-0.4,0.4c0,0.2,0.2,0.4,0.4,0.4C97.8,63.7,98,63.6,98,63.3z"
				/>
			<path class="st4" d="M93.3,65.6c0-0.2-0.2-0.4-0.4-0.5c-0.2,0-0.4,0.2-0.5,0.4c0,0.2,0.2,0.4,0.4,0.5C93,66,93.2,65.8,93.3,65.6z
				"/>
		</g>
	</g>
	<g>
		<path d="M5.3,106.5c-2.6-7.6-3.8-11.1,1-19.1l0.4-0.7H3.9L3.7,87c-4.7,8.2-3.6,12.5-0.4,21.4c2.8,7.6,2.4,11.5-1.7,18.1l-0.4,0.7
			h3l0.1-0.2c3.8-6.4,4.3-11,1.8-18.3C5.8,107.9,5.6,107.2,5.3,106.5z"/>
		<path d="M19.6,86.7c-3.1,0-4.4,3.4-4.4,5.8c0,5.8,0,11.4,0,17.1c0,5.7,0,11.4,0,17.2v0.5h2.5v-7.6h3.7v7.6h2.5v-0.5
			c0-5.6,0-11.2,0-16.8c0-5.6,0-11.2,0-16.7C23.9,91.7,23.9,86.8,19.6,86.7z M21.4,93c0,7.9,0,16-0.1,24.1h-3.7v-24
			c0-1.5,0.4-3.5,1.7-3.8c0.1,0,0.3-0.1,0.4-0.1C21.1,89.2,21.4,91.7,21.4,93z"/>
		<path d="M35.2,86.7h-2.5v0.5c0,6.6,0,13.2,0,19.7c0,6.6,0,13.2,0,19.7v0.5h7.7v-2.5h-5.1V86.7z"/>
		<path d="M51.4,86.7c-3.1,0-4.4,3.4-4.4,5.8c0,5.8,0,11.4,0,17.1c0,5.7,0,11.4,0,17.2v0.5h2.5v-7.6h3.7v7.6h2.5v-0.5
			c0-5.6,0-11.2,0-16.8c0-5.6,0-11.2,0-16.7C55.7,91.7,55.7,86.8,51.4,86.7z M53.2,93c0,7.9,0,16-0.1,24.1h-3.7v-24
			c0-1.5,0.4-3.5,1.7-3.8c0.1,0,0.3-0.1,0.4-0.1C52.8,89.2,53.2,91.7,53.2,93z"/>
		<path d="M64.6,85.6v0.9c0,6.7,0,13.4,0,20.1c0,6.7,0,13.4,0,20.1v0.5H67V90.7l3.1,2.4l3.1-2.4c0,5.9,0,11.7,0,17.6
			c0,6.2,0,12.3,0,18.5v0.5h2.5V85.6l-5.5,4.3L64.6,85.6z"/>
		<path d="M89,86.7c-3.1,0-4.4,3.4-4.4,5.8c0,5.8,0,11.4,0,17.1c0,5.7,0,11.4,0,17.2v0.5H87v-7.6h3.7v7.6h2.5v-0.5
			c0-5.6,0-11.2,0-16.8c0-5.6,0-11.2,0-16.7C93.3,91.7,93.3,86.8,89,86.7z M90.8,93c0,7.9,0,16-0.1,24.1H87v-24
			c0-1.5,0.4-3.5,1.7-3.8c0.1,0,0.3-0.1,0.4-0.1C90.4,89.2,90.8,91.7,90.8,93z"/>
		<path d="M108.4,90c-0.7-0.4-1.3-0.8-1.8-1.1c-1-0.6-2-1.2-3.9-2.3l-0.7-0.4V87c0,6.6,0,13.3,0,19.9c0,6.6,0,13.3,0,19.9v0.5h2.5
			V90.6c0.8,0.5,1.2,0.7,1.5,0.8c0,0,0,0,0,0l0,0c0.1,0,0.1,0.1,0.2,0.1c0.6,0.3,1.4,0.8,2.4,1.4v34.3h2.5l0-0.5
			c0.1-13.2,0.1-26.6,0.1-39.6v-0.5h-2.5V90z"/>
		<path d="M131.9,88.6c-4.5-1.8-7.1-1.9-11.7-1.9l-0.5,0v0.5c0,5.8,0,12.9,0,19.9c0,7.1,0,14.1,0,19.9v0.5h0.6v0.1l0.5,0
			c12.3-0.3,20.6-6.2,22.8-16.2C145.9,101.7,141,92.3,131.9,88.6z M141.3,110.8c-1.9,8.4-8.8,13.6-19,14.2V89.3
			c1.8,0,5.5,0.3,8.5,1.6C139,94.6,143.2,102.4,141.3,110.8z"/>
		<path d="M177.7,130.6c-0.7,0.1-1.4,0.1-2,0.1c0,0,0,0,0,0c-5.4,0-7.7-3-10.1-6.1c-1.6-2.1-3.2-4.2-5.8-5.6
			c8.3-2.2,15.8-8.8,13.7-18.8c-2.3-11.6-14.8-13.1-20.1-13.2h-1.8v0.5c0,5.8,0,12.8,0,19.8c0,7,0,14,0,19.7v0.5h2.5v-7.4
			c5.1,0.3,7.3,3.2,9.7,6.2c2.2,2.9,4.5,5.9,9.4,6.8c0.5,0.1,1.1,0.1,1.6,0.1c1.2,0,2.3-0.2,3.3-0.3l0.4-0.1l-0.4-2.2L177.7,130.6z
			 M156.8,116.8c-0.9,0.1-1.8,0.2-2.7,0.3V89.3c5.8,0.2,15.2,2.1,17,11.1c0.7,3.4,0.1,6.5-1.8,9.3
			C166.7,113.3,162.1,115.9,156.8,116.8z"/>
		<path d="M184.7,86.7c-3.1,0-4.4,3.4-4.4,5.8c0,5.8,0,11.4,0,17.1c0,5.7,0,11.4,0,17.2v0.5h2.5v-7.6h3.7v7.6h2.5v-0.5
			c0-5.6,0-11.2,0-16.8c0-5.6,0-11.2,0-16.7C189,91.7,189,86.8,184.7,86.7z M186.5,93c0,7.9,0,16-0.1,24.1h-3.7v-24
			c0-1.5,0.4-3.5,1.7-3.8c0.1,0,0.3-0.1,0.4-0.1C186.1,89.2,186.5,91.7,186.5,93z"/>
	</g>
	<g>
		<path d="M4.4,135.6c1.1,0,2,0.4,2.7,1.1c0.8,0.7,1.1,1.6,1.1,2.7c0,1.1-0.5,2.1-1.6,3c1,0.2,1.9,0.8,2.7,1.7
			c1.4,1.4,2.1,3.1,2.1,5c0,2-0.7,3.6-2.1,5.1c-1.3,1.3-2.8,2-4.6,2v0h-4v-20.6H4.4z M1.9,136.7v5.3h2.8c0.6-0.1,1.2-0.3,1.6-0.7
			c0.5-0.5,0.8-1.1,0.8-1.9s-0.3-1.4-0.8-1.9c-0.5-0.5-1.2-0.8-1.9-0.8H1.9z M1.9,143.2V155h2.8v0c1.4-0.1,2.7-0.7,3.7-1.8
			c1.1-1.2,1.7-2.6,1.7-4.2s-0.6-3-1.7-4.1c-1.1-1.1-2.5-1.7-4.1-1.7H1.9z"/>
		<path d="M17.5,153.8c1.1,1,2.4,1.5,3.9,1.5c1.6,0,3-0.6,4.1-1.7c0.1-0.1,0.3-0.3,0.4-0.5l1.2,0.4c-0.2,0.3-0.5,0.6-0.8,0.9
			c-1.4,1.4-3.1,2.1-5,2.1c-2,0-3.6-0.7-5-2.1c-1.4-1.4-2.1-3.1-2.1-5c0-2,0.7-3.6,2.1-5c1.4-1.4,3-2.1,5-2.1c1.7,0,3.1,0.5,4.4,1.5
			c0.2,0.2,0.4,0.4,0.6,0.6c0.1,0.1,0.2,0.2,0.2,0.2l-0.9,0.9L17.5,153.8z M24.9,144.8c-1-0.8-2.2-1.2-3.5-1.2c-1.6,0-3,0.6-4.1,1.7
			c-1.1,1.1-1.7,2.5-1.7,4.1c0,1.3,0.4,2.5,1.2,3.5L24.9,144.8z"/>
		<path d="M44.6,156.2h-1.2v-2.6c-0.2,0.3-0.5,0.6-0.7,0.9c-1.4,1.4-3.1,2.1-5,2.1c-2,0-3.6-0.7-5-2.1c-1.4-1.4-2.1-3-2.1-5
			c0-2,0.7-3.6,2.1-5c1.4-1.4,3-2.1,5-2.1c2,0,3.6,0.7,5,2.1c0.3,0.3,0.5,0.6,0.7,0.9v-1.8h1.2V156.2z M43.4,150.6v-2.3
			c-0.2-1.1-0.8-2.1-1.6-3c-1.1-1.1-2.5-1.7-4.1-1.7s-3,0.6-4.1,1.7c-1.1,1.1-1.7,2.5-1.7,4.1s0.6,3,1.7,4.1
			c1.1,1.1,2.5,1.7,4.1,1.7s3-0.6,4.1-1.7C42.7,152.7,43.2,151.7,43.4,150.6z"/>
		<path d="M54.3,156.3c-1.6,0-2.8-0.5-3.8-1.4c-0.9-0.9-1.4-2.1-1.4-3.5v-7.9h1.2v7.8c0,1.1,0.4,2,1.2,2.7c0.8,0.8,1.7,1.1,2.9,1.1
			c1.1,0,2-0.4,2.8-1.1c0.8-0.8,1.2-1.7,1.2-2.8v-7.8h1.2v7.9c0,1.4-0.5,2.6-1.4,3.5S55.8,156.3,54.3,156.3z"/>
		<path d="M65.7,143.5v-5.4h1.2v5.4h2.6v1.2h-2.6v11.5h-1.2v-11.5h-2.6v-1.2H65.7z"/>
		<path d="M77.8,155l-2.9,6h-1.1l3.4-7.2l-4.9-10.3h1.3l4.2,9.1l4.2-9.1h1.3L77.8,155L77.8,155z"/>
		<path d="M98,135.6v20.6h-1.2v-20.6H98z"/>
		<path d="M104,146.3v9.8h-1.2v-12.7h1.2v0.8c1.1-1,2.3-1.6,3.7-1.6c1.5,0,2.7,0.5,3.6,1.4c0.9,0.9,1.4,2.1,1.4,3.5v8.5h-1.2v-8.4
			c0-1.1-0.4-2-1.2-2.8c-0.8-0.8-1.7-1.1-2.8-1.1c-1.1,0-2,0.4-2.8,1.1C104.5,145.5,104.2,145.9,104,146.3z"/>
		<path d="M120.7,149.7c-1-0.5-1.7-1-2-1.4c-0.6-0.6-0.9-1.3-0.9-2.1c0-0.8,0.3-1.6,0.9-2.2c0.6-0.6,1.3-0.9,2.1-0.9
			c0.8,0,1.5,0.3,2.1,0.8c0.5,0.5,0.8,1.2,0.8,1.8v0.1l-1,0.4c-0.1-0.7-0.3-1.1-0.6-1.5c-0.3-0.3-0.7-0.5-1.3-0.5
			c-0.5,0-1,0.2-1.3,0.5c-0.4,0.4-0.6,0.8-0.6,1.3c0,0.5,0.2,1,0.6,1.3c0.2,0.2,0.7,0.5,1.4,1c1.1,0.6,1.9,1.1,2.3,1.6
			c0.7,0.7,1.1,1.6,1.1,2.6c0,1-0.4,1.9-1.1,2.7c-0.7,0.7-1.6,1.1-2.7,1.1c-1,0-1.9-0.4-2.7-1.1c-0.7-0.7-1.1-1.5-1.1-2.4l1.1-0.3
			c0,0.8,0.3,1.4,0.8,1.9c0.5,0.5,1.1,0.8,1.8,0.8s1.3-0.3,1.8-0.8c0.5-0.5,0.8-1.1,0.8-1.9c0-0.7-0.3-1.3-0.8-1.8
			C122.1,150.6,121.6,150.2,120.7,149.7z"/>
		<path d="M130.3,143.5v-5.4h1.2v5.4h2.6v1.2h-2.6v11.5h-1.2v-11.5h-2.6v-1.2H130.3z"/>
		<path d="M139.4,139.4c0.2,0.2,0.3,0.5,0.3,0.8c0,0.3-0.1,0.6-0.3,0.8c-0.2,0.2-0.5,0.3-0.8,0.3s-0.6-0.1-0.8-0.3
			c-0.2-0.2-0.3-0.5-0.3-0.8c0-0.3,0.1-0.6,0.3-0.8c0.2-0.2,0.5-0.3,0.8-0.3S139.2,139.1,139.4,139.4z M139.2,143.5v12.7H138v-12.7
			H139.2z"/>
		<path d="M145.8,143.5v-5.4h1.2v5.4h2.6v1.2h-2.6v11.5h-1.2v-11.5h-2.6v-1.2H145.8z"/>
		<path d="M158.5,156.3c-1.6,0-2.8-0.5-3.8-1.4s-1.4-2.1-1.4-3.5v-7.9h1.2v7.8c0,1.1,0.4,2,1.2,2.7c0.8,0.8,1.7,1.1,2.9,1.1
			c1.1,0,2-0.4,2.8-1.1c0.8-0.8,1.2-1.7,1.2-2.8v-7.8h1.2v7.9c0,1.4-0.5,2.6-1.4,3.5C161.2,155.9,159.9,156.3,158.5,156.3z"/>
		<path d="M169.9,143.5v-5.4h1.2v5.4h2.6v1.2H171v11.5h-1.2v-11.5h-2.6v-1.2H169.9z"/>
		<path d="M179.8,153.8c1.1,1,2.4,1.5,3.9,1.5c1.6,0,3-0.6,4.1-1.7c0.1-0.1,0.3-0.3,0.4-0.5l1.2,0.4c-0.2,0.3-0.5,0.6-0.8,0.9
			c-1.4,1.4-3.1,2.1-5,2.1c-2,0-3.6-0.7-5-2.1c-1.4-1.4-2.1-3.1-2.1-5c0-2,0.7-3.6,2.1-5c1.4-1.4,3-2.1,5-2.1c1.7,0,3.1,0.5,4.4,1.5
			c0.2,0.2,0.4,0.4,0.6,0.6c0.1,0.1,0.2,0.2,0.2,0.2l-0.9,0.9L179.8,153.8z M187.2,144.8c-1-0.8-2.2-1.2-3.5-1.2
			c-1.6,0-3,0.6-4.1,1.7c-1.1,1.1-1.7,2.5-1.7,4.1c0,1.3,0.4,2.5,1.2,3.5L187.2,144.8z"/>
	</g>
</g>
</svg>
