<?xml version="1.0" encoding="utf-8"?>
<!-- Generator: Adobe Illustrator 20.1.0, SVG Export Plug-In . SVG Version: 6.00 Build 0)  -->
<svg version="1.1" id="Layer_1" xmlns="http://www.w3.org/2000/svg" xmlns:xlink="http://www.w3.org/1999/xlink" x="0px" y="0px"
	 width="214.5px" height="51.29px" viewBox="0 0 214.5 51.29" style="enable-background:new 0 0 214.5 51.29;" xml:space="preserve"
	>
<style type="text/css">
	.st0{fill:#FFFFFF;}
          .st1{fill:#2C928D;}
</style>
<g>
	<path class="st0" d="M95.24,37.72l-7.49-19.75h0.17c4.06,0,7.64,2.63,8.86,6.5l2.04,6.46l4.06-12.96h6.68L102,37.72H95.24z"/>
	<path class="st0" d="M132.15,27.83c0,5.86-4.56,10.17-10.85,10.17c-6.28,0-10.85-4.28-10.85-10.17c0-5.86,4.56-10.06,10.85-10.06
		C127.59,17.77,132.15,21.99,132.15,27.83z M117.16,27.85c0,2.7,1.97,4.71,4.23,4.71c2.25,0,4.06-2,4.06-4.71s-1.8-4.65-4.06-4.65
		C119.11,23.21,117.16,25.15,117.16,27.85z"/>
	<path class="st0" d="M150.31,32.28v5.44h-14.76V17.96h6.54v14.31H150.31z"/>
	<path class="st0" d="M161.9,23.12v14.59h-6.54V23.12h-5.61v-5.16h17.78v5.16H161.9z"/>
	<path class="st0" d="M190.34,27.83c0,5.86-4.56,10.17-10.85,10.17s-10.85-4.28-10.85-10.17c0-5.86,4.56-10.06,10.85-10.06
		S190.34,21.99,190.34,27.83z M175.35,27.85c0,2.7,1.97,4.71,4.23,4.71c2.25,0,4.06-2,4.06-4.71s-1.8-4.65-4.06-4.65
		C177.3,23.21,175.35,25.15,175.35,27.85z"/>
	<path class="st0" d="M202.26,32.59h-2.45v5.13h-6.54V17.96h9.55c5.35,0,8.42,2.56,8.42,7.07c0,2.87-1.1,5.02-3.13,6.25l3.89,6.42
		h-7.38L202.26,32.59z M202.83,27.63c1.41,0,2.23-0.87,2.23-2.39c0-1.47-0.82-2.31-2.23-2.31h-3.01v4.71H202.83z"/>
	<path class="st0" d="M41.78,23.36c0.18,0.22,0.18,0.54,0,0.76l-9.92,11.82l-0.7,0.84c-0.24,0.28-0.67,0.28-0.91,0l-9.74-11.61
		L1.52,2.55C1.19,2.17,1.47,1.58,1.97,1.58h0c9.11,0,17.76,4.03,23.62,11l7.77,9.26c0.11,0.13,0.28,0.21,0.45,0.21l5.18,0
		C40.07,22.06,41.09,22.53,41.78,23.36L41.78,23.36z"/>
	<path class="st0" d="M62.51,49.56H41.25c-0.17,0-0.34-0.08-0.45-0.21l-3.64-4.34l0,0l-4.21-5.02c-0.18-0.22-0.18-0.54,0-0.76
		l0.79-0.95c0.11-0.13,0.28-0.21,0.45-0.21h6.32c2.79,0,5.44-1.24,7.24-3.37l1.32-1.57c0.24-0.28,0.67-0.28,0.9,0l5.44,6.48
		l0.73,0.87l0.04,0.05l1.16,1.38l2.6,3.1l3.01,3.59C63.28,48.97,63.01,49.56,62.51,49.56z"/>
	<path class="st1" d="M86.08,1.56c0.5,0,0.78,0.59,0.45,0.97L67.54,25.16L57.8,36.77c-0.24,0.28-0.67,0.28-0.9,0l-5.44-6.48
		l-1.47-1.76c-0.24-0.28-0.67-0.28-0.91,0l-0.7,0.84l-1.99,2.37c-1.8,2.14-4.45,3.37-7.24,3.37h-1.48c-0.5,0-0.77-0.59-0.45-0.97
		l6.82-8.12l0.77-0.92l1.16-1.38v0c0.89-1.06,2.21-1.68,3.6-1.68h4.68c0.17,0,0.34-0.08,0.45-0.21L71.53,1.77
		c0.11-0.13,0.28-0.21,0.45-0.21L86.08,1.56z"/>
</g>
</svg>
